<svg width="192" height="48" viewBox="0 0 192 48" fill="none" xmlns="http://www.w3.org/2000/svg">
<path d="M10.8156 19.6349V8.06276C10.8156 6.48168 10.4994 5.31182 9.86697 4.55284C9.23421 3.79403 8.5387 3.41463 7.77972 3.41463H7.21043C6.38798 3.41463 5.66064 3.79403 5.02824 4.55284C4.39584 5.31182 4.07956 6.48168 4.07956 8.06276V39.4599C4.07956 41.0406 4.3642 42.2106 4.93348 42.9693C5.56588 43.7283 6.2301 44.1077 6.92561 44.1077H7.77972C8.5387 44.1077 9.23421 43.7283 9.86697 42.9693C10.4994 42.2106 10.8156 41.0406 10.8156 39.4599V27.6977H14.8952V39.4599C14.8952 42.1155 14.1993 44.1393 12.808 45.5305C11.4797 46.8584 9.89843 47.5223 8.06418 47.5223H6.45145C4.80689 47.5223 3.32057 46.8584 1.99231 45.5305C0.664043 44.1393 0 42.1155 0 39.4599V8.06276C0 5.46988 0.664043 3.4781 1.99231 2.08654C3.32057 0.695514 4.90166 0 6.73591 0H8.06418C9.89843 0 11.4797 0.695514 12.808 2.08654C14.1993 3.41463 14.8952 5.40676 14.8952 8.06276V19.6349H10.8156Z" fill="white"/>
<path d="M32.7866 47.5223C29.3078 47.5223 27.5685 44.8348 27.5685 39.4599V29.0256C27.5685 23.6507 29.4027 20.9628 33.0711 20.9628H33.3559C35.0634 20.9628 36.7396 21.6902 38.3841 23.1447V8.06276C38.3841 6.48168 38.068 5.31182 37.4353 4.55284C36.8027 3.79403 36.0755 3.41463 35.2531 3.41463H34.6842C33.9252 3.41463 33.2293 3.79403 32.5969 4.55284C31.9645 5.31182 31.6482 6.48168 31.6482 8.06276V19.6349H27.5685V8.06276C27.5685 5.40676 28.2327 3.41463 29.561 2.08654C30.9524 0.695514 32.5651 0 34.3993 0H35.7276C37.5617 0 39.1431 0.695514 40.4714 2.08654C41.7995 3.4781 42.4635 5.46988 42.4635 8.06276V47.2378H38.3841V45.1511C37.5617 45.8466 36.6763 46.4157 35.7276 46.8584C34.842 47.3011 33.9883 47.5223 33.1658 47.5223H32.7866ZM34.6842 23.9982C33.9252 23.9982 33.2293 24.3778 32.5969 25.1366C31.9645 25.8954 31.6482 27.0653 31.6482 28.6464V39.8391C31.6482 41.42 31.9645 42.5901 32.5969 43.3487C33.2293 44.1077 33.9252 44.4871 34.6842 44.4871H34.9686C35.6645 44.4871 36.36 44.1708 37.0559 43.5386C37.8149 42.8429 38.2575 41.768 38.3841 40.3133V27.3183C38.3841 26.0535 38.0046 25.1997 37.2456 24.7572C36.5501 24.2512 35.8542 23.9982 35.1583 23.9982H34.6842Z" fill="white"/>
<path d="M62.9164 3.41463C62.1574 3.41463 61.3984 3.88915 60.6395 4.83748C59.8805 5.72287 59.4378 6.89273 59.3112 8.34723V47.2378H55.2318V0.284461H59.3112V3.22493C60.0705 2.27624 60.8926 1.51761 61.778 0.94833C62.6636 0.316109 63.5488 0 64.4344 0H64.814C66.9012 0 68.3875 0.85339 69.2731 2.56106C69.9686 3.95226 70.3165 5.78599 70.3165 8.06276V19.6349H66.2372V8.06276C66.2372 6.48168 65.9209 5.31182 65.2881 4.55284C64.6557 3.79403 63.9602 3.41463 63.2012 3.41463H62.9164Z" fill="white"/>
<path d="M155.588 47.5223C153.753 47.5223 152.172 46.8584 150.844 45.5305C149.515 44.1393 148.851 42.1155 148.851 39.4599V8.06276C148.851 5.40676 149.515 3.41463 150.844 2.08654C152.172 0.695514 153.753 0 155.588 0H156.916C158.75 0 160.331 0.695514 161.659 2.08654C163.051 3.41463 163.747 5.40676 163.747 8.06276V39.4599C163.747 42.1155 163.051 44.1393 161.659 45.5305C160.331 46.8584 158.75 47.5223 156.916 47.5223H155.588ZM156.062 3.41463C155.24 3.41463 154.512 3.79403 153.88 4.55284C153.247 5.31182 152.931 6.48168 152.931 8.06276V39.4599C152.931 41.0406 153.247 42.2106 153.88 42.9693C154.512 43.7283 155.24 44.1077 156.062 44.1077H156.631C157.39 44.1077 158.086 43.7283 158.718 42.9693C159.351 42.2106 159.667 41.0406 159.667 39.4599V8.06276C159.667 6.48168 159.351 5.31182 158.718 4.55284C158.086 3.79403 157.39 3.41463 156.631 3.41463H156.062Z" fill="white"/>
<path d="M184.2 3.41463C183.441 3.41463 182.682 3.88915 181.923 4.83748C181.164 5.72287 180.721 6.89273 180.595 8.34723V47.2378H176.515V0.284461H180.595V3.22493C181.353 2.27624 182.176 1.51761 183.061 0.94833C183.947 0.316109 184.832 0 185.718 0H186.097C189.766 0 191.6 2.68729 191.6 8.06276V47.2378H187.52V8.06276C187.52 6.48168 187.204 5.31182 186.572 4.55284C185.939 3.79403 185.243 3.41463 184.484 3.41463H184.2Z" fill="white"/>
<path fill-rule="evenodd" clip-rule="evenodd" d="M86.3046 16.5136L82.8187 12.8766L82.7344 24.242H94.0346L90.397 20.4535L101.377 9.61009C103.263 7.74118 105.048 5.63643 108.619 6.37738C112.778 7.21911 113.94 9.82896 113.94 13.5502C113.94 19.8474 99.0869 25.3534 99.0869 35.5232C99.0869 42.4267 104.661 48 111.549 48C118.218 48 122.513 41.9552 127.817 36.6345C129.08 35.3717 131.489 33.2669 132.347 31.9705L136.154 35.5905L136.221 24.242H124.921L128.423 27.8789L117.578 38.874C115.692 40.7429 113.907 42.8477 110.337 42.1067C106.177 41.2648 105.015 38.6551 105.015 34.9339C105.015 28.7882 119.868 22.9456 119.868 12.9609C119.868 6.05738 114.294 0.484077 107.406 0.484077C100.737 0.484077 96.4429 6.5289 91.138 11.8496C89.8412 13.1292 87.6351 15.6211 86.3046 16.5136Z" fill="white"/>
</svg>
