<svg width="47" height="47" viewBox="0 0 47 47" fill="none" xmlns="http://www.w3.org/2000/svg">
<circle cx="23.5" cy="23.5" r="23" stroke="#0B2926"/>
<path d="M29.6921 14.8585C29.0786 17.6193 28.826 18.9004 28.3208 20.8852C27.8336 22.7979 27.4547 24.5843 26.8051 25.4504C26.1555 26.3345 25.2713 26.515 24.6759 26.5872C24.3691 26.6232 24.1346 26.6413 23.4669 26.6413C22.7993 26.6413 22.5647 26.6232 22.258 26.5872C21.6625 26.515 20.7784 26.3345 20.1288 25.4504C19.4792 24.5843 19.1003 22.7979 18.6311 20.8852C18.1259 18.8823 17.8733 17.6193 17.2598 14.8585C17.2598 14.8585 16.6463 14.8766 16.3756 14.8946C15.9967 14.9127 15.708 14.9487 15.4012 14.9848C15.4012 14.9848 15.7621 20.6687 15.9245 23.0866C16.0869 25.6128 16.3937 29.8892 16.6643 33.1191C16.6643 33.1191 17.1876 33.2093 18.0537 33.2454C18.9559 33.2995 19.3709 33.2995 19.3709 33.2995C19.7499 31.8741 20.201 29.9073 20.7242 29.0592C21.1573 28.3735 21.8069 28.3013 22.1858 28.2472C22.7632 28.175 23.2685 28.157 23.485 28.157C23.7196 28.157 24.2067 28.157 24.7842 28.2472C25.1631 28.3013 25.8127 28.3735 26.2457 29.0592C26.769 29.9073 27.2381 31.8741 27.599 33.2995C27.599 33.2995 27.996 33.2995 28.8982 33.2454C29.7643 33.1913 30.2876 33.1191 30.2876 33.1191C30.5582 29.8892 30.865 25.6308 31.0274 23.0866C31.1898 20.6867 31.5507 14.9848 31.5507 14.9848C31.2439 14.9487 30.9372 14.9127 30.5763 14.8946C30.3056 14.8766 29.6921 14.8585 29.6921 14.8585Z" fill="#0B2926"/>
<path d="M36.8556 18.2147C36.4948 14.6059 34.0769 13.8481 31.9657 13.4872C30.9011 13.3067 29.0065 13.1624 27.7975 13.1083C26.7329 13.0361 24.2429 13 23.485 13C22.7272 13 20.2371 13.0361 19.1725 13.1083C17.9635 13.1624 16.0689 13.3067 15.0043 13.4872C12.8931 13.8481 10.4752 14.6059 10.1144 18.2147C10.0061 19.2072 9.98805 20.4883 10.0061 21.8596C10.0422 24.1512 10.2407 25.685 10.3489 26.7676C10.4211 27.5074 10.7279 29.7088 11.1248 30.8456C11.6661 32.4154 12.1533 32.8665 12.7307 33.3356C13.7773 34.1837 15.5095 34.4544 15.8704 34.5266C17.8192 34.8694 21.7528 34.9416 23.503 34.9416C25.2353 34.9416 29.1869 34.8874 31.1357 34.5266C31.4966 34.4544 33.2288 34.2018 34.2753 33.3356C34.8528 32.8665 35.3399 32.4154 35.8813 30.8456C36.2782 29.7088 36.585 27.4894 36.6572 26.7676C36.7654 25.703 36.9639 24.1512 37 21.8596C36.982 20.4702 36.9459 19.1891 36.8556 18.2147V18.2147ZM35.5204 24.2775C35.3039 27.1646 35.0512 28.8968 34.6904 30.1418C34.3656 31.2425 33.9686 31.9643 33.3912 32.4876C32.4168 33.3717 31.0815 33.5522 30.2876 33.6785C28.5915 33.9311 25.7225 34.0213 23.485 34.0213C21.2295 34.0213 18.3785 33.9311 16.6824 33.6785C15.8885 33.5522 14.5532 33.3717 13.5788 32.4876C13.0014 31.9643 12.6044 31.2245 12.2796 30.1418C11.9188 28.8968 11.6481 27.1646 11.4496 24.2775C11.3233 22.5453 11.3414 19.7304 11.5398 18.2147C11.8105 15.9412 12.9292 14.8044 15.3291 14.3894C16.4478 14.1909 17.9635 14.0466 19.389 13.9744C20.5438 13.9022 22.4204 13.8661 23.485 13.8661C24.5316 13.8481 26.4262 13.9022 27.563 13.9744C28.9884 14.0466 30.5041 14.1909 31.6229 14.3894C34.0227 14.8224 35.1415 15.9592 35.4302 18.2147C35.6287 19.7124 35.6467 22.5273 35.5204 24.2775Z" fill="#0B2926"/>
</svg>
