<svg width="47" height="47" viewBox="0 0 47 47" fill="none" xmlns="http://www.w3.org/2000/svg">
<circle cx="23.5" cy="23.5" r="23" stroke="#0B2926"/>
<path fill-rule="evenodd" clip-rule="evenodd" d="M22.5912 32.0332C21.0707 31.0754 19.9505 27.7698 19.9505 23.8423C19.9505 23.6981 19.9514 23.5561 19.9546 23.4141L19.9564 23.4162C15.7272 22.7477 12.6715 20.9163 12.5932 18.7507L12.5808 18.7757C11.546 20.0691 10.9553 21.5644 10.9553 23.1578C10.9553 27.8465 16.0729 31.6883 22.5639 32.028L22.5912 32.0332ZM9 23.4999C9 18.2536 15.4916 14 23.5 14C31.5082 14 38 18.2536 38 23.4999C38 28.7462 31.508 33 23.5 33C15.4916 33 9 28.7461 9 23.4999ZM23.5 15.371C25.046 15.371 26.361 17.7295 26.8481 21.0203L26.8499 21.0154C29.8575 20.5445 31.9633 19.4584 31.9633 18.1945C31.9633 16.4981 28.1738 15.1245 23.5 15.1245C18.8259 15.1245 15.0367 16.4982 15.0367 18.1945C15.0367 19.4584 17.1422 20.5445 20.1501 21.0154L20.1519 21.0203C20.639 17.7296 21.9544 15.371 23.5 15.371ZM24.4359 32.0279C30.9269 31.6883 36.0452 27.8464 36.0452 23.1577C36.0452 21.5644 35.4538 20.0691 34.4191 18.7756L34.4065 18.7506C34.3282 20.9162 31.2733 22.7476 27.0436 23.416L27.0454 23.414C27.0483 23.556 27.0498 23.698 27.0498 23.8422C27.0498 27.7697 25.9288 31.0753 24.4091 32.0331L24.4359 32.0279ZM23.5 21.2649C24.1926 21.2649 24.8659 21.2352 25.5101 21.1781L25.5092 21.1791C25.1886 19.0696 24.4099 17.5808 23.5 17.5808C22.5901 17.5808 21.8115 19.0696 21.4905 21.1791L21.4897 21.1781C22.1339 21.2352 22.8074 21.2649 23.5 21.2649ZM23.5 29.0769C24.6639 29.0769 25.6133 26.641 25.664 23.5857L25.6702 23.5879C24.9686 23.6532 24.2429 23.6873 23.5001 23.6873C22.7566 23.6873 22.0316 23.6532 21.33 23.5879L21.3366 23.5857C21.3865 26.6409 22.3357 29.0769 23.5 29.0769Z" fill="#0B2926"/>
</svg>
