<svg width="19" height="22" viewBox="0 0 19 22" fill="none" xmlns="http://www.w3.org/2000/svg">
<path d="M17.3636 9.18182C17.3636 15.5455 9.18182 21 9.18182 21C9.18182 21 1 15.5455 1 9.18182C1 7.01187 1.86201 4.93079 3.3964 3.3964C4.93079 1.86201 7.01186 1 9.18182 1C11.3518 1 13.4328 1.86201 14.9672 3.3964C16.5016 4.93079 17.3636 7.01187 17.3636 9.18182Z" stroke="#0B2926" stroke-width="2" stroke-linecap="round" stroke-linejoin="round"/>
<path d="M9.18186 11.9091C10.6881 11.9091 11.9091 10.6881 11.9091 9.18183C11.9091 7.6756 10.6881 6.45456 9.18186 6.45456C7.67563 6.45456 6.45459 7.6756 6.45459 9.18183C6.45459 10.6881 7.67563 11.9091 9.18186 11.9091Z" stroke="#0B2926" stroke-width="2" stroke-linecap="round" stroke-linejoin="round"/>
</svg>
