<svg width="48" height="47" viewBox="0 0 48 47" fill="none" xmlns="http://www.w3.org/2000/svg">
<path d="M47.5 23.5C47.5 36.1927 36.9887 46.5 24 46.5C11.0113 46.5 0.5 36.1927 0.5 23.5C0.5 10.8073 11.0113 0.5 24 0.5C36.9887 0.5 47.5 10.8073 47.5 23.5Z" stroke="#0B2926"/>
<path d="M22.8935 16.016L22.8808 31.9936H25.0186L25.0344 24.779H27.4132C27.6257 26.0972 27.6479 31.5361 27.6479 31.9616V31.9968H29.8301C29.8967 27.9368 29.8618 20.3863 27.6099 16.0192H22.8935V16.016ZM25.0122 22.9202V17.8396H26.135H26.1604C26.5854 18.7355 26.8645 20.0312 27.039 20.9942C27.2229 22.0404 27.3181 22.9202 27.3181 22.9202H25.0122ZM19.3983 32L21.7676 31.9968V16.0192L19.4205 16.0256L19.3983 32ZM14 31.984L16.3439 32L16.3629 24.763H18.0852V22.9074H16.3629V17.8556H18.5831V16H14.0032L14 31.984ZM29.2465 16.016V17.862H30.9402L30.9465 31.9936H33.2904L33.2841 17.862H35V16.0032L29.2465 16.016Z" fill="#0B2926"/>
</svg>
