<svg width="47" height="47" viewBox="0 0 47 47" fill="none" xmlns="http://www.w3.org/2000/svg">
<circle cx="23.5" cy="23.5" r="23" stroke="#0B2926"/>
<path d="M23.5732 33C33.2801 33 41.1502 28.9703 41.1502 24.0019C41.1502 19.0297 33.2801 15 23.5732 15C13.8701 15 6 19.0297 6 24.0019C6 28.9703 13.8701 33 23.5732 33ZM26.8831 28.5844C26.5899 29.2635 26.0853 30.7142 24.9276 31.2931C24.5751 31.4676 24.141 31.5492 23.755 31.564C23.6659 31.564 23.6029 31.564 23.5768 31.564C20.3338 31.564 17.3134 31.1113 14.7865 30.3432C14.7676 30.3351 14.7087 30.3136 14.6901 30.306C14.4564 30.2282 14.3376 30.1205 14.3376 29.987C14.3376 29.872 14.4006 29.7829 14.4822 29.7012C14.5193 29.6679 14.5713 29.6234 14.6418 29.5602C15.2281 29.0741 16.9832 27.8013 20.2931 26.5323C21.4544 26.0908 22.909 25.5379 24.4303 25.2151C25.3208 25.0296 28.6307 24.5212 26.883 28.5843L26.8831 28.5844ZM35.7624 19.512C35.8254 19.4043 35.9072 19.3116 36.0592 19.3041C36.1408 19.296 36.2523 19.3148 36.4229 19.4228C38.486 20.6918 39.7104 22.28 39.7104 23.9979C39.7104 27.1 35.7216 29.7678 30.0147 30.9329C29.6511 31.0073 29.4062 31.0035 29.3246 30.9114C29.2653 30.8557 29.2505 30.7556 29.3246 30.6332C29.358 30.5702 29.3988 30.5144 29.4767 30.4215C32.5824 26.7592 34.9497 21.3565 35.6214 19.7981C35.6733 19.6904 35.7216 19.583 35.7625 19.5124L35.7624 19.512ZM20.3191 19.3975C20.6122 18.7185 21.1169 17.2676 22.2746 16.6924C22.6271 16.518 23.0612 16.4326 23.4471 16.4216C23.5362 16.4189 23.5992 16.4216 23.6216 16.4216C26.8683 16.4216 29.885 16.8706 32.4156 17.6424C32.4345 17.6504 32.4934 17.672 32.512 17.6795C32.7457 17.7573 32.8645 17.865 32.8645 17.9986C32.8645 18.1136 32.8015 18.1989 32.7199 18.2806C32.6828 18.3178 32.6308 18.3622 32.5603 18.4217C31.9777 18.9115 30.2189 20.1805 26.909 21.4495C25.7439 21.8948 24.2931 22.4439 22.7755 22.7667C21.8812 22.956 18.5714 23.4606 20.3191 19.3976V19.3975ZM17.1317 17.0636C17.499 16.9931 17.7403 16.9931 17.8293 17.0851C17.8813 17.1444 17.8961 17.2411 17.8266 17.3635C17.7894 17.4265 17.7488 17.486 17.6745 17.5714C14.5688 21.2374 12.2014 26.6362 11.5261 28.1984C11.4779 28.3061 11.4259 28.4135 11.385 28.4841C11.3255 28.5918 11.2404 28.6845 11.0919 28.692C11.0103 28.7001 10.8953 28.6758 10.7245 28.5733C8.66142 27.3042 7.43696 25.7161 7.43696 23.9981C7.43696 20.8961 11.4258 18.2282 17.1326 17.0631" fill="#0B2926"/>
</svg>
